<?xml version="1.0" encoding="utf-8"?>
<!-- Generator: Adobe Illustrator 27.5.0, SVG Export Plug-In . SVG Version: 6.00 Build 0)  -->
<svg version="1.1" xmlns="http://www.w3.org/2000/svg" xmlns:xlink="http://www.w3.org/1999/xlink" x="0px" y="0px"
	 viewBox="0 0 500 500" style="enable-background:new 0 0 500 500;" xml:space="preserve">
<g id="BACKGROUND">
	<rect style="fill:#FFFFFF;" width="500" height="500"/>
</g>
<g id="OBJECTS">
	<g>
		<g>
			<path style="fill:#1B2A66;" d="M244.327,281.254L221.676,143.43c-2.532-15.458-15.886-26.783-31.545-26.783
				c-0.668,0-1.323,0.025-1.978,0.063c-6.4,0.39-12.396,2.683-17.297,6.4c-5.417,4.094-9.536,9.902-11.477,16.78l-28.723,141.364
				h6.882H244.327z"/>
			<linearGradient id="SVGID_1_" gradientUnits="userSpaceOnUse" x1="281.1587" y1="117.73" x2="280.626" y2="143.836">
				<stop  offset="0" style="stop-color:#C2F8E6"/>
				<stop  offset="1" style="stop-color:#2FE6AB"/>
			</linearGradient>
			<path style="fill:url(#SVGID_1_);" d="M369.347,281.254l-22.654-137.829c-2.539-15.448-15.891-26.785-31.546-26.785h-97.872
				h-27.62v4.137l24.443,10.102l8.503,37.619l3.164-0.209l18.567,112.964H369.347z"/>
			
				<linearGradient id="SVGID_00000053546758316063142670000000232781680920668832_" gradientUnits="userSpaceOnUse" x1="187.7848" y1="288.4419" x2="180.326" y2="105.1671">
				<stop  offset="0" style="stop-color:#008EBC"/>
				<stop  offset="1" style="stop-color:#2FE6AB"/>
			</linearGradient>
			<path style="fill:url(#SVGID_00000053546758316063142670000000232781680920668832_);" d="M140.266,273.987l26.099-132.112
				c2.998-10.579,12.771-17.967,23.766-17.967c12.153,0,22.404,8.704,24.375,20.696l21.265,129.383l1.395,7.267h7.164
				l-22.653-137.829c-2.539-15.448-15.891-26.784-31.546-26.784h0c-14.299,0-26.859,9.496-30.758,23.253l-28.72,141.36h8.393
				L140.266,273.987z"/>
			<g>
				<path style="fill:#1B2A66;" d="M337.336,264.446h-69.183c-1.911,0-3.538-1.393-3.831-3.282l-10.141-65.229h77.031l9.956,64.038
					C341.533,262.323,339.715,264.446,337.336,264.446z"/>
				<g>
					
						<linearGradient id="SVGID_00000130605226355668929310000014243478612900150423_" gradientUnits="userSpaceOnUse" x1="303.6003" y1="194.4879" x2="303.8192" y2="217.9058">
						<stop  offset="0" style="stop-color:#FF004C"/>
						<stop  offset="0.2197" style="stop-color:#FF1864"/>
						<stop  offset="1" style="stop-color:#FF6AB4"/>
					</linearGradient>
					<polygon style="fill:url(#SVGID_00000130605226355668929310000014243478612900150423_);" points="353.248,217.539 
						276.555,217.539 254.181,195.935 330.874,195.935 					"/>
					
						<linearGradient id="SVGID_00000039818053620028025460000016132876052883546793_" gradientUnits="userSpaceOnUse" x1="315.0621" y1="216.7725" x2="314.7278" y2="229.1418">
						<stop  offset="0" style="stop-color:#FF004C"/>
						<stop  offset="0.2197" style="stop-color:#FF1864"/>
						<stop  offset="1" style="stop-color:#FF6AB4"/>
					</linearGradient>
					<path style="fill:url(#SVGID_00000039818053620028025460000016132876052883546793_);" d="M314.902,235.434L314.902,235.434
						c-4.236,0-7.669-3.434-7.669-7.669v-10.226h15.339v10.226C322.571,232,319.137,235.434,314.902,235.434z"/>
					
						<linearGradient id="SVGID_00000057129496314464758610000003823686355147627683_" gradientUnits="userSpaceOnUse" x1="330.3154" y1="216.3047" x2="330.0095" y2="242.3036">
						<stop  offset="0" style="stop-color:#F9FAFC"/>
						<stop  offset="1" style="stop-color:#A8C7EC"/>
					</linearGradient>
					<path style="fill:url(#SVGID_00000057129496314464758610000003823686355147627683_);" d="M330.24,235.434L330.24,235.434
						c-4.236,0-7.669-3.434-7.669-7.669v-10.226h15.339v10.226C337.91,232,334.476,235.434,330.24,235.434z"/>
					
						<linearGradient id="SVGID_00000019658609469782712680000006451870686862890674_" gradientUnits="userSpaceOnUse" x1="284.3849" y1="216.7725" x2="284.0506" y2="229.1418">
						<stop  offset="0" style="stop-color:#FF004C"/>
						<stop  offset="0.2197" style="stop-color:#FF1864"/>
						<stop  offset="1" style="stop-color:#FF6AB4"/>
					</linearGradient>
					<path style="fill:url(#SVGID_00000019658609469782712680000006451870686862890674_);" d="M284.225,235.434L284.225,235.434
						c-4.236,0-7.669-3.434-7.669-7.669v-10.226h15.339v10.226C291.894,232,288.46,235.434,284.225,235.434z"/>
					
						<linearGradient id="SVGID_00000183929717595684431620000012557945950303285913_" gradientUnits="userSpaceOnUse" x1="299.6381" y1="216.3047" x2="299.3323" y2="242.3036">
						<stop  offset="0" style="stop-color:#F9FAFC"/>
						<stop  offset="1" style="stop-color:#A8C7EC"/>
					</linearGradient>
					<path style="fill:url(#SVGID_00000183929717595684431620000012557945950303285913_);" d="M299.563,235.434L299.563,235.434
						c-4.236,0-7.669-3.434-7.669-7.669v-10.226h15.339v10.226C307.232,232,303.799,235.434,299.563,235.434z"/>
					
						<linearGradient id="SVGID_00000037651200130711313690000013469007607716927124_" gradientUnits="userSpaceOnUse" x1="345.717" y1="217.601" x2="345.3827" y2="229.9703">
						<stop  offset="0" style="stop-color:#FF004C"/>
						<stop  offset="0.2197" style="stop-color:#FF1864"/>
						<stop  offset="1" style="stop-color:#FF6AB4"/>
					</linearGradient>
					<path style="fill:url(#SVGID_00000037651200130711313690000013469007607716927124_);" d="M345.579,235.434L345.579,235.434
						c-4.236,0-7.669-3.434-7.669-7.669v-10.226h15.339v10.226C353.248,232,349.815,235.434,345.579,235.434z"/>
				</g>
			</g>
			<g>
				<path style="fill:#FFFFFF;" d="M209.083,281.254h-37.463v-81.452c0-0.888,0.72-1.608,1.607-1.608h34.248
					c0.888,0,1.608,0.72,1.608,1.608V281.254z"/>
				
					<rect x="168.666" y="208.707" transform="matrix(-1.836970e-16 1 -1 -1.836970e-16 414.011 33.307)" style="fill:#1B2A66;" width="43.371" height="29.904"/>
				
					<linearGradient id="SVGID_00000124851713974802516220000009521111116797844655_" gradientUnits="userSpaceOnUse" x1="187.1248" y1="236.0617" x2="192.4526" y2="224.3406">
					<stop  offset="0" style="stop-color:#008EBC"/>
					<stop  offset="1" style="stop-color:#2FE6AB"/>
				</linearGradient>
				
					<rect x="183.043" y="225.905" style="fill:url(#SVGID_00000124851713974802516220000009521111116797844655_);" width="14.618" height="6.114"/>
			</g>
		</g>
		<text transform="matrix(1 0 0 1 91.6482 356.8078)" style="fill:#0060AB; font-family:'Roboto-Black'; font-size:45.2025px;">The Book Store</text>
		
			<text transform="matrix(1 0 0 1 143.8779 386.9272)" style="fill:#202E7E; font-family:'Raleway-Regular'; font-size:19.8769px; letter-spacing:5;">TAGLINE HERE</text>
	</g>
</g>
</svg>
